<?xml version="1.0" encoding="utf-8"?>
<!-- Generator: Adobe Illustrator 16.0.3, SVG Export Plug-In . SVG Version: 6.00 Build 0)  -->
<!DOCTYPE svg PUBLIC "-//W3C//DTD SVG 1.1//EN" "http://www.w3.org/Graphics/SVG/1.1/DTD/svg11.dtd">
<svg version="1.1" id="Layer_1" xmlns="http://www.w3.org/2000/svg" xmlns:xlink="http://www.w3.org/1999/xlink" x="0px" y="0px"
	 width="16px" height="16px" viewBox="0 0 16 16" enable-background="new 0 0 16 16" xml:space="preserve">
<rect x="3.5" y="3.5" fill="#FFFFFF" stroke="#000000" stroke-miterlimit="10" width="9" height="9"/>
<line fill="none" stroke="#000000" stroke-miterlimit="10" x1="3.5" y1="0" x2="3.5" y2="2"/>
<line fill="none" stroke="#000000" stroke-miterlimit="10" x1="6.5" y1="0" x2="6.5" y2="2"/>
<line fill="none" stroke="#000000" stroke-miterlimit="10" x1="9.5" y1="0" x2="9.5" y2="2"/>
<line fill="none" stroke="#000000" stroke-miterlimit="10" x1="12.5" y1="0" x2="12.5" y2="2"/>
<line fill="none" stroke="#000000" stroke-miterlimit="10" x1="3.5" y1="14" x2="3.5" y2="16"/>
<line fill="none" stroke="#000000" stroke-miterlimit="10" x1="6.5" y1="14" x2="6.5" y2="16"/>
<line fill="none" stroke="#000000" stroke-miterlimit="10" x1="9.5" y1="14" x2="9.5" y2="16"/>
<line fill="none" stroke="#000000" stroke-miterlimit="10" x1="12.5" y1="14" x2="12.5" y2="16"/>
<line fill="none" stroke="#000000" stroke-miterlimit="10" x1="14" y1="12.5" x2="16" y2="12.5"/>
<line fill="none" stroke="#000000" stroke-miterlimit="10" x1="14" y1="9.5" x2="16" y2="9.5"/>
<line fill="none" stroke="#000000" stroke-miterlimit="10" x1="14" y1="6.5" x2="16" y2="6.5"/>
<line fill="none" stroke="#000000" stroke-miterlimit="10" x1="14" y1="3.5" x2="16" y2="3.5"/>
<line fill="none" stroke="#000000" stroke-miterlimit="10" x1="0" y1="12.5" x2="2" y2="12.5"/>
<line fill="none" stroke="#000000" stroke-miterlimit="10" x1="0" y1="9.5" x2="2" y2="9.5"/>
<line fill="none" stroke="#000000" stroke-miterlimit="10" x1="0" y1="6.5" x2="2" y2="6.5"/>
<line fill="none" stroke="#000000" stroke-miterlimit="10" x1="0" y1="3.5" x2="2" y2="3.5"/>
</svg>
