<?xml version="1.0" encoding="utf-8"?>
<!-- Generator: Adobe Illustrator 16.0.3, SVG Export Plug-In . SVG Version: 6.00 Build 0)  -->
<!DOCTYPE svg PUBLIC "-//W3C//DTD SVG 1.1//EN" "http://www.w3.org/Graphics/SVG/1.1/DTD/svg11.dtd">
<svg version="1.1" id="Layer_1" xmlns="http://www.w3.org/2000/svg" xmlns:xlink="http://www.w3.org/1999/xlink" x="0px" y="0px"
	 width="16px" height="16px" viewBox="0 0 16 16" enable-background="new 0 0 16 16" xml:space="preserve">
<g>
	<path fill="#39C0C4" stroke="#39C0C4" stroke-width="0.9689" stroke-miterlimit="10" d="M15.418,7.825
		c0,1.074-0.344,1.99-1.027,2.749c-0.686,0.759-1.553,1.138-2.602,1.138c-0.764,0-1.459-0.217-2.087-0.651
		c-0.626-0.435-1.207-1.127-1.739-2.079c-0.492,0.853-1.052,1.511-1.681,1.974c-0.626,0.463-1.3,0.695-2.023,0.695
		c-1.074,0-1.955-0.355-2.644-1.064C0.927,9.877,0.583,8.939,0.583,7.775c0-1.099,0.344-2.016,1.033-2.749
		c0.689-0.734,1.57-1.101,2.644-1.101c1.485,0,2.727,0.898,3.728,2.694c1.016-1.763,2.284-2.645,3.801-2.645
		c1.092,0,1.967,0.358,2.631,1.076S15.418,6.693,15.418,7.825z M4.358,10.125c0.541,0,1.035-0.187,1.481-0.56
		c0.449-0.373,0.894-0.97,1.336-1.79C6.765,6.98,6.338,6.392,5.889,6.01C5.442,5.629,4.924,5.438,4.333,5.438
		c-0.623,0-1.139,0.215-1.549,0.646S2.169,7.086,2.169,7.8c0,0.681,0.199,1.238,0.596,1.673C3.164,9.908,3.694,10.125,4.358,10.125z
		 M11.641,5.487c-0.541,0-1.035,0.189-1.482,0.566C9.712,6.43,9.263,7.021,8.811,7.825C9.229,8.62,9.665,9.21,10.115,9.596
		c0.453,0.386,0.969,0.579,1.551,0.579c0.623,0,1.141-0.22,1.549-0.659c0.41-0.438,0.615-1.002,0.615-1.691
		c0-0.697-0.207-1.261-0.621-1.691C12.795,5.703,12.273,5.487,11.641,5.487z"/>
</g>
</svg>
