<?xml version="1.0" encoding="utf-8"?>
<!-- Generator: Adobe Illustrator 16.0.3, SVG Export Plug-In . SVG Version: 6.00 Build 0)  -->
<!DOCTYPE svg PUBLIC "-//W3C//DTD SVG 1.1//EN" "http://www.w3.org/Graphics/SVG/1.1/DTD/svg11.dtd">
<svg version="1.1" id="Layer_1" xmlns="http://www.w3.org/2000/svg" xmlns:xlink="http://www.w3.org/1999/xlink" x="0px" y="0px"
	 width="16px" height="16px" viewBox="0 0 16 16" enable-background="new 0 0 16 16" xml:space="preserve">
<g>
	<path fill="#FFFFFF" d="M15.656,7.95c0,1.109-0.354,2.054-1.061,2.837s-1.602,1.174-2.686,1.174c-0.787,0-1.504-0.224-2.153-0.672
		c-0.646-0.449-1.246-1.164-1.795-2.146c-0.508,0.88-1.086,1.56-1.734,2.038c-0.646,0.478-1.342,0.718-2.088,0.718
		c-1.108,0-2.018-0.367-2.729-1.099S0.345,9.101,0.345,7.899c0-1.134,0.355-2.08,1.066-2.837S3.032,3.925,4.14,3.925
		c1.533,0,2.814,0.927,3.848,2.78c1.049-1.82,2.358-2.729,3.922-2.729c1.127,0,2.031,0.37,2.717,1.111S15.656,6.782,15.656,7.95z
		 M4.242,10.324c0.559,0,1.068-0.193,1.529-0.578C6.234,9.361,6.693,8.745,7.15,7.899C6.726,7.078,6.285,6.471,5.822,6.077
		c-0.461-0.394-0.996-0.59-1.605-0.59c-0.643,0-1.176,0.222-1.599,0.667S1.982,7.188,1.982,7.924c0,0.703,0.205,1.278,0.616,1.727
		S3.556,10.324,4.242,10.324z M11.758,5.538c-0.559,0-1.068,0.195-1.529,0.584C9.767,6.511,9.304,7.12,8.837,7.95
		c0.432,0.821,0.881,1.43,1.346,1.828c0.467,0.398,1,0.597,1.6,0.597c0.645,0,1.178-0.227,1.6-0.68
		c0.424-0.453,0.635-1.035,0.635-1.746c0-0.719-0.213-1.301-0.641-1.746S12.41,5.538,11.758,5.538z"/>
</g>
</svg>
