<?xml version="1.0" encoding="utf-8"?>
<!-- Generator: Adobe Illustrator 16.0.3, SVG Export Plug-In . SVG Version: 6.00 Build 0)  -->
<!DOCTYPE svg PUBLIC "-//W3C//DTD SVG 1.1//EN" "http://www.w3.org/Graphics/SVG/1.1/DTD/svg11.dtd">
<svg version="1.1" id="Layer_1" xmlns="http://www.w3.org/2000/svg" xmlns:xlink="http://www.w3.org/1999/xlink" x="0px" y="0px"
	 width="16px" height="16px" viewBox="0 0 16 16" enable-background="new 0 0 16 16" xml:space="preserve">
<g>
	<path fill="#FF6600" d="M9.434,16.418h0.202c-0.034-0.278-0.069-0.558-0.104-0.841c0.416-0.038,0.781-0.375,1.222-0.052
		c0.062,0.045,0.39-0.145,0.476-0.294c0.201-0.354,0.715-0.661,1.123-0.581c0.288,0.056,0.449-0.062,0.509-0.339
		c0.1-0.465,0.511-0.811,0.979-0.913c0.146-0.031,0.341-0.245,0.354-0.391c0.045-0.551,0.268-0.933,0.783-1.17
		c0.127-0.058,0.265-0.308,0.24-0.439c-0.105-0.562,0.051-0.991,0.485-1.357c0.1-0.084,0.16-0.337,0.107-0.455
		c-0.224-0.511-0.177-0.96,0.132-1.421c0.079-0.12,0.076-0.389-0.007-0.506c-0.314-0.447-0.383-0.888-0.196-1.407
		c0.048-0.139-0.054-0.402-0.173-0.514c-0.259-0.245-0.575-0.897-0.481-1.214s-0.105-0.401-0.305-0.578
		c-0.303-0.268-0.601-0.613-0.725-0.984c-0.104-0.307-0.184-0.411-0.496-0.522c-0.341-0.123-0.708-0.416-0.868-0.732
		c-0.16-0.318-0.259-0.482-0.625-0.406C11.771,1.364,11.124,1,11.003,0.728c-0.135-0.3-0.331-0.38-0.634-0.224
		c-0.324,0.168-0.98,0.007-1.204-0.286C8.962-0.047,8.753-0.072,8.501,0.157C8.22,0.413,7.835,0.413,7.55,0.155
		C7.296-0.075,7.089-0.046,6.888,0.222C6.657,0.534,6.02,0.692,5.693,0.511C5.365,0.33,5.172,0.442,5.043,0.762
		c-0.116,0.291-0.748,0.62-1.056,0.545C3.623,1.219,3.43,1.329,3.403,1.726C3.384,1.998,2.779,2.494,2.515,2.472
		C2.147,2.443,2.008,2.609,2.026,2.964c0.02,0.386-0.355,0.888-0.729,0.999C0.988,4.055,0.87,4.236,0.985,4.559
		c0.126,0.356-0.133,0.954-0.489,1.158c-0.252,0.145-0.294,0.35-0.167,0.595c0.225,0.428,0.161,0.97-0.164,1.284
		C-0.061,7.815-0.05,8.025,0.171,8.24c0.297,0.288,0.358,0.905,0.122,1.249c-0.181,0.263-0.12,0.459,0.144,0.618
		c0.379,0.229,0.57,0.785,0.416,1.21c-0.099,0.274-0.01,0.459,0.267,0.544c0.458,0.144,0.772,0.594,0.733,1.087
		c-0.024,0.317,0.119,0.462,0.43,0.462c0.4,0,0.859,0.427,0.908,0.84c0.038,0.326,0.204,0.476,0.537,0.391
		c0.396-0.099,0.938,0.189,1.083,0.582c0.093,0.257,0.294,0.467,0.522,0.297c0.446-0.33,0.789,0.012,1.196,0.047
		c-0.036,0.288-0.07,0.571-0.106,0.853h0.211 M7.155,16.418h0.193c0.018-0.138,0.038-0.276,0.055-0.415
		c0.031-0.247,0.117-0.308,0.358-0.301c0.811,0.029,0.867,0.024,0.953,0.716h0.184 M8.569,15.456c-0.364,0-0.702,0-1.081,0
		c0.165-1.146,0.328-2.276,0.489-3.403c0.035,0,0.068,0,0.102,0.002C8.239,13.173,8.402,14.289,8.569,15.456z M8.023,11.731
		c-0.305-0.472-0.422-0.498-0.875-0.175c-0.149-0.41-0.395-0.613-0.866-0.247c0.068-0.581-0.201-0.712-0.658-0.565
		c0.039-0.544-0.022-0.615-0.551-0.676c0.118-0.556,0.082-0.623-0.425-0.783c0.297-0.462,0.28-0.554-0.188-0.846
		c0.325-0.28,0.463-0.581-0.002-0.857C4.941,7.248,4.96,7.159,4.678,6.731c0.536-0.196,0.576-0.271,0.436-0.803
		C5.64,5.907,5.726,5.812,5.675,5.31C6.239,5.379,6.316,5.323,6.386,4.8c0.512,0.208,0.591,0.183,0.781-0.153
		c0.32-0.021,0.556-0.037,0.79-0.05C8.01,4.594,8.062,4.608,8.114,4.608c0.239,0.001,0.477,0.001,0.768,0.001
		C9.046,4.984,9.16,5.023,9.663,4.781c0.079,0.552,0.166,0.616,0.7,0.518c-0.016,0.533,0.062,0.616,0.551,0.612
		c0,0.178-0.059,0.387,0.017,0.523c0.076,0.141,0.281,0.211,0.435,0.313c-0.273,0.42-0.257,0.505,0.229,0.812
		c-0.377,0.283-0.384,0.583,0,0.862c-0.464,0.316-0.481,0.407-0.186,0.848c-0.52,0.189-0.559,0.266-0.401,0.787
		c-0.566,0.085-0.624,0.152-0.559,0.641c-0.626-0.004-0.642,0.007-0.696,0.543c-0.546-0.208-0.601-0.189-0.843,0.288
		C8.442,11.238,8.34,11.26,8.023,11.731z M9.488,15.376c-0.164-1.127-0.323-2.228-0.482-3.328c0.021-0.007,0.045-0.016,0.067-0.022
		c0.421,1.029,0.842,2.056,1.281,3.132C10.054,15.233,9.806,15.296,9.488,15.376z M11.218,14.825
		c-0.429-1.045-0.844-2.061-1.261-3.074c0.029-0.013,0.058-0.024,0.086-0.038c0.644,0.887,1.285,1.772,1.947,2.681
		C11.735,14.534,11.509,14.662,11.218,14.825z M12.747,13.862c-0.654-0.899-1.285-1.765-1.915-2.631
		c0.025-0.024,0.05-0.052,0.074-0.078c0.819,0.694,1.64,1.386,2.495,2.109C13.18,13.466,12.981,13.648,12.747,13.862z M14.015,12.57
		c-0.869-0.732-1.701-1.436-2.532-2.139c0.014-0.026,0.028-0.053,0.044-0.08c0.978,0.484,1.955,0.969,2.981,1.478
		C14.339,12.082,14.188,12.307,14.015,12.57z M14.935,11.013c-1.016-0.505-1.965-0.978-2.915-1.449
		c0.011-0.035,0.021-0.069,0.031-0.104c1.047,0.232,2.095,0.464,3.187,0.707C15.132,10.463,15.04,10.718,14.935,11.013z
		 M12.107,8.524c0.002-0.031,0.005-0.063,0.008-0.095c1.11,0,2.222,0,3.409,0c-0.019,0.254-0.035,0.512-0.058,0.84
		C14.31,9.013,13.208,8.769,12.107,8.524z M12.113,7.443c1.077-0.29,2.153-0.579,3.288-0.884c0.045,0.301,0.087,0.576,0.139,0.92
		c-1.181,0-2.301,0-3.42,0C12.118,7.466,12.116,7.455,12.113,7.443z M15.18,5.668c-1.1,0.293-2.159,0.575-3.218,0.857
		c-0.011-0.031-0.023-0.063-0.036-0.095c0.953-0.524,1.906-1.049,2.918-1.605C14.966,5.131,15.066,5.384,15.18,5.668z M14.403,4.014
		c-1.002,0.55-1.975,1.085-2.949,1.621c-0.016-0.024-0.033-0.049-0.05-0.074c0.81-0.745,1.618-1.489,2.462-2.265
		C14.046,3.536,14.208,3.752,14.403,4.014z M12.559,2.039c0.237,0.192,0.446,0.363,0.694,0.563c-0.83,0.765-1.63,1.503-2.431,2.241
		c-0.025-0.026-0.051-0.052-0.076-0.078C11.342,3.87,11.937,2.974,12.559,2.039z M10.991,1.125c0.274,0.135,0.517,0.253,0.804,0.394
		c-0.636,0.957-1.247,1.875-1.856,2.794C9.91,4.3,9.886,4.288,9.859,4.275C10.23,3.24,10.603,2.205,10.991,1.125z M9.254,0.629
		c0.297,0.061,0.547,0.113,0.871,0.18C9.729,1.912,9.355,2.952,8.98,3.992c-0.026-0.005-0.055-0.01-0.081-0.014
		C9.017,2.875,9.133,1.774,9.254,0.629z M8.324,0.543C8.243,1.366,8.166,2.168,8.089,2.972C8.051,2.974,8.016,2.976,7.98,2.979
		C7.895,2.179,7.813,1.378,7.727,0.543C7.944,0.543,8.097,0.543,8.324,0.543z M6.805,0.637C6.926,1.788,7.04,2.861,7.153,3.935
		C7.125,3.943,7.097,3.952,7.067,3.959c-0.369-1.026-0.74-2.053-1.129-3.132C6.245,0.76,6.492,0.706,6.805,0.637z M5.068,1.141
		C5.454,2.21,5.82,3.226,6.188,4.242c-0.03,0.013-0.059,0.027-0.09,0.04C5.503,3.388,4.91,2.494,4.284,1.554
		C4.55,1.414,4.785,1.291,5.068,1.141z M3.509,2.059c0.61,0.917,1.204,1.807,1.798,2.698c-0.026,0.024-0.051,0.05-0.076,0.075
		c-0.78-0.715-1.559-1.429-2.389-2.19C3.077,2.437,3.271,2.267,3.509,2.059z M2.218,3.322c0.835,0.767,1.636,1.502,2.438,2.239
		C4.634,5.583,4.612,5.605,4.589,5.627C3.647,5.111,2.707,4.593,1.716,4.048C1.886,3.8,2.039,3.581,2.218,3.322z M1.265,4.854
		C2.25,5.396,3.192,5.914,4.133,6.431C4.121,6.462,4.108,6.494,4.095,6.526C3.061,6.25,2.025,5.973,0.94,5.684
		C1.053,5.394,1.151,5.144,1.265,4.854z M3.942,7.442C3.94,7.455,3.938,7.468,3.936,7.481c-1.095,0-2.191,0-3.337,0
		c0.038-0.33,0.068-0.597,0.104-0.908C1.818,6.872,2.881,7.157,3.942,7.442z M3.957,8.518C2.881,8.76,1.804,9.004,0.667,9.261
		c-0.032-0.309-0.06-0.57-0.09-0.849c1.157,0,2.26,0,3.364,0C3.947,8.447,3.951,8.482,3.957,8.518z M0.872,10.153
		C1.951,9.914,2.98,9.685,4.009,9.457C4.02,9.492,4.033,9.525,4.043,9.56c-0.936,0.466-1.873,0.933-2.86,1.424
		C1.079,10.704,0.981,10.445,0.872,10.153z M1.585,11.812c1-0.495,1.966-0.976,2.934-1.458c0.018,0.029,0.035,0.057,0.053,0.083
		c-0.812,0.686-1.624,1.37-2.479,2.092C1.923,12.289,1.768,12.07,1.585,11.812z M2.685,13.242c0.842-0.714,1.653-1.401,2.464-2.089
		c0.026,0.026,0.05,0.054,0.076,0.078c-0.625,0.859-1.251,1.719-1.892,2.6C3.106,13.626,2.914,13.452,2.685,13.242z M4.855,14.798
		c-0.27-0.149-0.486-0.27-0.769-0.424c0.655-0.906,1.292-1.783,1.929-2.665c0.028,0.014,0.052,0.026,0.08,0.04
		C5.688,12.747,5.284,13.747,4.855,14.798z M5.708,15.142c0.438-1.069,0.854-2.085,1.268-3.101C7,12.048,7.023,12.055,7.047,12.062
		c-0.153,1.069-0.306,2.139-0.47,3.292C6.269,15.278,6.009,15.216,5.708,15.142z"/>
</g>
</svg>
