<?xml version="1.0" encoding="utf-8"?>
<!-- Generator: Adobe Illustrator 16.0.3, SVG Export Plug-In . SVG Version: 6.00 Build 0)  -->
<!DOCTYPE svg PUBLIC "-//W3C//DTD SVG 1.1//EN" "http://www.w3.org/Graphics/SVG/1.1/DTD/svg11.dtd">
<svg version="1.1" id="Layer_1" xmlns="http://www.w3.org/2000/svg" xmlns:xlink="http://www.w3.org/1999/xlink" x="0px" y="0px"
	 width="16px" height="16px" viewBox="0 0 16 16" enable-background="new 0 0 16 16" xml:space="preserve">
<g>
	<path fill="#FF6600" d="M7.103,13.081c0.05-0.361,0.07-0.729,0.16-1.082c0.042-0.167,0.215-0.302,0.328-0.451
		c0.061,0.165,0.187,0.335,0.167,0.489C7.614,13.2,7.442,14.356,7.28,15.513c-0.042,0.303-0.084,0.604-0.125,0.905h0.193
		c0.018-0.138,0.038-0.276,0.055-0.415c0.031-0.247,0.117-0.308,0.358-0.301c0.811,0.029,0.867,0.024,0.953,0.716h0.184
		c-0.1-0.721-0.2-1.441-0.301-2.165c-0.103-0.736-0.221-1.475-0.299-2.214c-0.017-0.156,0.107-0.326,0.167-0.491
		c0.114,0.149,0.305,0.288,0.329,0.449c0.23,1.471,0.432,2.946,0.64,4.421h0.202c-0.034-0.278-0.069-0.558-0.104-0.841
		c0.416-0.038,0.781-0.375,1.222-0.052c0.062,0.045,0.39-0.145,0.476-0.294c0.201-0.354,0.715-0.661,1.123-0.581
		c0.288,0.056,0.449-0.062,0.509-0.339c0.1-0.465,0.511-0.811,0.979-0.913c0.146-0.031,0.341-0.245,0.354-0.391
		c0.045-0.551,0.268-0.933,0.783-1.17c0.127-0.058,0.265-0.308,0.24-0.439c-0.105-0.562,0.051-0.991,0.485-1.357
		c0.1-0.084,0.16-0.337,0.107-0.455c-0.224-0.511-0.177-0.96,0.132-1.421c0.079-0.12,0.076-0.389-0.007-0.506
		c-0.314-0.447-0.383-0.888-0.196-1.407c0.048-0.139-0.054-0.402-0.173-0.514c-0.259-0.245-0.575-0.897-0.481-1.214
		s-0.105-0.401-0.305-0.578c-0.303-0.268-0.601-0.613-0.725-0.984c-0.104-0.307-0.184-0.411-0.496-0.522
		c-0.341-0.123-0.708-0.416-0.868-0.732c-0.16-0.318-0.259-0.482-0.625-0.406C11.771,1.364,11.124,1,11.003,0.728
		c-0.135-0.3-0.331-0.38-0.634-0.224c-0.324,0.168-0.98,0.007-1.204-0.286C8.962-0.047,8.753-0.072,8.501,0.157
		C8.22,0.413,7.835,0.413,7.55,0.155C7.296-0.075,7.089-0.046,6.888,0.222C6.657,0.534,6.02,0.692,5.693,0.511
		C5.365,0.33,5.172,0.442,5.043,0.762c-0.116,0.291-0.748,0.62-1.056,0.545C3.623,1.219,3.43,1.329,3.403,1.726
		C3.384,1.998,2.779,2.494,2.515,2.472C2.147,2.443,2.008,2.609,2.026,2.964c0.02,0.386-0.355,0.888-0.729,0.999
		C0.988,4.055,0.87,4.236,0.985,4.559c0.126,0.356-0.133,0.954-0.489,1.158c-0.252,0.145-0.294,0.35-0.167,0.595
		c0.225,0.428,0.161,0.97-0.164,1.284C-0.061,7.815-0.05,8.025,0.171,8.24c0.297,0.288,0.358,0.905,0.122,1.249
		c-0.181,0.263-0.12,0.459,0.144,0.618c0.379,0.229,0.57,0.785,0.416,1.21c-0.099,0.274-0.01,0.459,0.267,0.544
		c0.458,0.144,0.772,0.594,0.733,1.087c-0.024,0.317,0.119,0.462,0.43,0.462c0.4,0,0.859,0.427,0.908,0.84
		c0.038,0.326,0.204,0.476,0.537,0.391c0.396-0.099,0.938,0.189,1.083,0.582c0.093,0.257,0.294,0.467,0.522,0.297
		c0.446-0.33,0.789,0.012,1.196,0.047c-0.036,0.288-0.07,0.571-0.106,0.853h0.211C6.788,15.307,6.945,14.195,7.103,13.081z
		 M8.569,15.456c-0.364,0-0.702,0-1.081,0c0.165-1.146,0.328-2.276,0.489-3.403c0.035,0,0.068,0,0.102,0.002
		C8.239,13.173,8.402,14.289,8.569,15.456z M8.023,11.731c-0.305-0.472-0.422-0.498-0.875-0.175
		c-0.149-0.41-0.395-0.613-0.866-0.247c0.068-0.581-0.201-0.712-0.658-0.565c0.039-0.544-0.022-0.615-0.551-0.676
		c0.118-0.556,0.082-0.623-0.425-0.783c0.297-0.462,0.28-0.554-0.188-0.846c0.325-0.28,0.463-0.581-0.002-0.857
		C4.941,7.248,4.96,7.159,4.678,6.731c0.536-0.196,0.576-0.271,0.436-0.803C5.64,5.907,5.726,5.812,5.675,5.31
		C6.239,5.379,6.316,5.323,6.386,4.8c0.512,0.208,0.591,0.183,0.781-0.153c0.32-0.021,0.556-0.037,0.79-0.05
		C8.01,4.594,8.062,4.608,8.114,4.608c0.239,0.001,0.477,0.001,0.768,0.001C9.046,4.984,9.16,5.023,9.663,4.781
		c0.079,0.552,0.166,0.616,0.7,0.518c-0.016,0.533,0.062,0.616,0.551,0.612c0,0.178-0.059,0.387,0.017,0.523
		c0.076,0.141,0.281,0.211,0.435,0.313c-0.273,0.42-0.257,0.505,0.229,0.812c-0.377,0.283-0.384,0.583,0,0.862
		c-0.464,0.316-0.481,0.407-0.186,0.848c-0.52,0.189-0.559,0.266-0.401,0.787c-0.566,0.085-0.624,0.152-0.559,0.641
		c-0.626-0.004-0.642,0.007-0.696,0.543c-0.546-0.208-0.601-0.189-0.843,0.288C8.442,11.238,8.34,11.26,8.023,11.731z M9.488,15.376
		c-0.164-1.127-0.323-2.228-0.482-3.328c0.021-0.007,0.045-0.016,0.067-0.022c0.421,1.029,0.842,2.056,1.281,3.132
		C10.054,15.233,9.806,15.296,9.488,15.376z M10.926,15.322c-0.092,0.012-0.216-0.047-0.292-0.113
		c-0.072-0.062-0.107-0.172-0.146-0.266c-0.411-1-0.82-2-1.227-3.002c-0.039-0.094-0.09-0.197-0.086-0.291
		c0.007-0.103,0.07-0.203,0.109-0.306c0.111,0.05,0.234,0.083,0.328,0.154c0.062,0.049,0.083,0.151,0.116,0.232
		c0.407,1,0.816,2.002,1.223,3.004c0.043,0.107,0.074,0.219,0.121,0.357C11.026,15.171,10.985,15.313,10.926,15.322z M11.218,14.825
		c-0.429-1.045-0.844-2.061-1.261-3.074c0.029-0.013,0.058-0.024,0.086-0.038c0.644,0.887,1.285,1.772,1.947,2.681
		C11.735,14.534,11.509,14.662,11.218,14.825z M12.126,14.218c-0.696-0.924-1.369-1.864-2.045-2.804
		c-0.133-0.186-0.215-0.379,0.084-0.569c0.12,0.103,0.252,0.175,0.333,0.284c0.686,0.931,1.368,1.865,2.033,2.812
		c0.08,0.114,0.044,0.309,0.062,0.467C12.434,14.347,12.213,14.331,12.126,14.218z M12.747,13.862
		c-0.654-0.899-1.285-1.765-1.915-2.631c0.025-0.024,0.05-0.052,0.074-0.078c0.819,0.694,1.64,1.386,2.495,2.109
		C13.18,13.466,12.981,13.648,12.747,13.862z M13.983,13.108c-0.08,0.061-0.217,0.087-0.314,0.061
		c-0.105-0.025-0.196-0.119-0.285-0.194c-0.832-0.696-1.662-1.391-2.486-2.096c-0.105-0.09-0.203-0.217-0.243-0.347
		c-0.023-0.075,0.076-0.188,0.141-0.328c0.189,0.121,0.32,0.188,0.43,0.277c0.841,0.707,1.678,1.417,2.515,2.129
		c0.078,0.065,0.164,0.137,0.208,0.224C13.988,12.916,14.021,13.081,13.983,13.108z M14.015,12.57
		c-0.869-0.732-1.701-1.436-2.532-2.139c0.014-0.026,0.028-0.053,0.044-0.08c0.978,0.484,1.955,0.969,2.981,1.478
		C14.339,12.082,14.188,12.307,14.015,12.57z M14.535,11.602c-0.679-0.311-1.343-0.647-2.009-0.979
		c-0.406-0.201-0.814-0.399-1.207-0.623c-0.095-0.054-0.172-0.201-0.186-0.314c-0.006-0.056,0.155-0.13,0.229-0.186
		c0.164,0.067,0.289,0.111,0.405,0.167c0.942,0.467,1.884,0.936,2.826,1.404c0.052,0.027,0.122,0.04,0.152,0.083
		c0.095,0.138,0.175,0.285,0.261,0.429C14.849,11.591,14.663,11.66,14.535,11.602z M14.935,11.013
		c-1.016-0.505-1.965-0.978-2.915-1.449c0.011-0.035,0.021-0.069,0.031-0.104c1.047,0.232,2.095,0.464,3.187,0.707
		C15.132,10.463,15.04,10.718,14.935,11.013z M15.315,9.981c-1.246-0.284-2.417-0.54-3.581-0.824
		c-0.116-0.028-0.196-0.207-0.293-0.316c0.137-0.052,0.287-0.169,0.408-0.145c1.173,0.242,2.342,0.504,3.507,0.782
		c0.118,0.027,0.202,0.206,0.303,0.312C15.529,9.863,15.401,9.935,15.315,9.981z M12.107,8.524c0.002-0.031,0.005-0.063,0.008-0.095
		c1.11,0,2.222,0,3.409,0c-0.019,0.254-0.035,0.512-0.058,0.84C14.31,9.013,13.208,8.769,12.107,8.524z M15.852,7.893L15.852,7.893
		L15.852,7.893c-0.098,0.058-0.195,0.146-0.293,0.204c-0.061,0.036-0.118,0.062-0.179,0.064c-1.039,0.051-2.079,0.065-3.118,0.091
		c-0.117,0.003-0.245,0.031-0.349-0.005c-0.136-0.049-0.251-0.152-0.376-0.231c0.125-0.096,0.245-0.263,0.376-0.272l1.801-0.093
		c0.557,0,1.113-0.018,1.668,0.01c0.061,0.003,0.119,0.025,0.178,0.056C15.657,7.768,15.754,7.841,15.852,7.893z M12.113,7.443
		c1.077-0.29,2.153-0.579,3.288-0.884c0.045,0.301,0.087,0.576,0.139,0.92c-1.181,0-2.301,0-3.42,0
		C12.118,7.466,12.116,7.455,12.113,7.443z M15.372,5.887c0.074,0.005,0.196,0.076,0.202,0.127c0.01,0.084-0.04,0.193-0.1,0.262
		c-0.052,0.061-0.146,0.097-0.229,0.119c-1.097,0.297-2.194,0.591-3.293,0.883c-0.069,0.019-0.145,0.02-0.282,0.038
		c-0.062-0.038-0.164-0.1-0.267-0.164c0.083-0.106,0.146-0.273,0.253-0.31c0.428-0.144,0.867-0.248,1.304-0.366
		c0.675-0.183,1.349-0.367,2.025-0.545C15.11,5.898,15.245,5.877,15.372,5.887z M15.18,5.668c-1.1,0.293-2.159,0.575-3.218,0.857
		c-0.011-0.031-0.023-0.063-0.036-0.095c0.953-0.524,1.906-1.049,2.918-1.605C14.966,5.131,15.066,5.384,15.18,5.668z M14.887,4.278
		c-0.054,0.124-0.072,0.31-0.165,0.363c-1.068,0.604-2.146,1.188-3.223,1.775c-0.051,0.027-0.11,0.037-0.27,0.088
		c-0.039-0.125-0.087-0.243-0.105-0.365c-0.006-0.039,0.057-0.105,0.104-0.131c1.085-0.603,2.171-1.205,3.266-1.789
		C14.588,4.169,14.754,4.255,14.887,4.278z M14.403,4.014c-1.002,0.55-1.975,1.085-2.949,1.621c-0.016-0.024-0.033-0.049-0.05-0.074
		c0.81-0.745,1.618-1.489,2.462-2.265C14.046,3.536,14.208,3.752,14.403,4.014z M13.809,2.767c0.042,0.035,0.032,0.178-0.005,0.244
		c-0.064,0.111-0.16,0.208-0.256,0.297c-0.794,0.735-1.588,1.469-2.388,2.199c-0.104,0.094-0.234,0.159-0.42,0.283
		c-0.069-0.136-0.174-0.246-0.151-0.318c0.039-0.129,0.136-0.255,0.238-0.35c0.804-0.747,1.611-1.488,2.422-2.228
		c0.084-0.076,0.182-0.156,0.287-0.184C13.619,2.687,13.745,2.712,13.809,2.767z M12.559,2.039c0.237,0.192,0.446,0.363,0.694,0.563
		c-0.83,0.765-1.63,1.503-2.431,2.241c-0.025-0.026-0.051-0.052-0.076-0.078C11.342,3.87,11.937,2.974,12.559,2.039z M12.03,1.586
		c0.048-0.07,0.206-0.087,0.311-0.083c0.043,0.002,0.08,0.129,0.13,0.218c-0.069,0.134-0.126,0.268-0.204,0.386
		c-0.595,0.901-1.193,1.799-1.792,2.697c-0.057,0.084-0.111,0.186-0.192,0.232c-0.088,0.05-0.24,0.094-0.306,0.051
		C9.91,5.045,9.863,4.854,9.902,4.791C10.602,3.715,11.311,2.647,12.03,1.586z M10.991,1.125c0.274,0.135,0.517,0.253,0.804,0.394
		c-0.636,0.957-1.247,1.875-1.856,2.794C9.91,4.3,9.886,4.288,9.859,4.275C10.23,3.24,10.603,2.205,10.991,1.125z M10.274,1.002
		c0.136-0.121,0.275-0.239,0.412-0.358c0.025,0.171,0.116,0.365,0.065,0.511c-0.366,1.078-0.751,2.149-1.154,3.213
		c-0.056,0.146-0.25,0.238-0.38,0.355C9.159,4.634,9.1,4.543,9.047,4.461C9.094,4.311,9.124,4.2,9.163,4.091
		c0.356-1.003,0.716-2.006,1.075-3.009C10.249,1.055,10.254,1.02,10.274,1.002z M9.254,0.629c0.297,0.061,0.547,0.113,0.871,0.18
		C9.729,1.912,9.355,2.952,8.98,3.992c-0.026-0.005-0.055-0.01-0.081-0.014C9.017,2.875,9.133,1.774,9.254,0.629z M8.552,0.63
		C8.57,0.484,8.743,0.358,8.845,0.223c0.065,0.16,0.202,0.326,0.189,0.479C8.945,1.767,8.827,2.829,8.718,3.892
		C8.716,3.906,8.72,3.923,8.713,3.935C8.599,4.13,8.484,4.325,8.371,4.52C8.285,4.325,8.2,4.13,8.163,4.045
		C8.3,2.81,8.411,1.718,8.552,0.63z M8.324,0.543C8.243,1.366,8.166,2.168,8.089,2.972C8.051,2.974,8.016,2.976,7.98,2.979
		C7.895,2.179,7.813,1.378,7.727,0.543C7.944,0.543,8.097,0.543,8.324,0.543z M7.212,0.224C7.312,0.344,7.483,0.456,7.5,0.587
		C7.647,1.75,7.768,2.915,7.907,4.181C7.86,4.255,7.773,4.39,7.688,4.525C7.587,4.402,7.415,4.287,7.398,4.153
		C7.251,2.976,7.124,1.796,7.013,0.616C7.002,0.492,7.143,0.355,7.212,0.224z M6.805,0.637C6.926,1.788,7.04,2.861,7.153,3.935
		C7.125,3.943,7.097,3.952,7.067,3.959c-0.369-1.026-0.74-2.053-1.129-3.132C6.245,0.76,6.492,0.706,6.805,0.637z M5.334,0.604
		C5.386,0.596,5.441,0.587,5.495,0.58C5.6,0.74,5.74,0.887,5.805,1.062C6.18,2.074,6.536,3.093,6.899,4.109
		c0.019,0.055,0.065,0.113,0.058,0.164C6.935,4.42,6.894,4.566,6.858,4.711C6.73,4.62,6.528,4.555,6.483,4.432
		C6.062,3.313,5.66,2.187,5.272,1.055C5.229,0.926,5.311,0.755,5.334,0.604z M5.068,1.141C5.454,2.21,5.82,3.226,6.188,4.242
		c-0.03,0.013-0.059,0.027-0.09,0.04C5.503,3.388,4.91,2.494,4.284,1.554C4.55,1.414,4.785,1.291,5.068,1.141z M3.744,1.424
		C3.887,1.536,4.072,1.62,4.17,1.763c0.635,0.927,1.259,1.86,1.861,2.808c0.086,0.135,0.036,0.355,0.048,0.537
		C5.92,5.015,5.703,4.961,5.608,4.824C4.978,3.913,4.367,2.987,3.764,2.058C3.67,1.914,3.643,1.727,3.585,1.559
		C3.637,1.514,3.69,1.469,3.744,1.424z M3.509,2.059c0.61,0.917,1.204,1.807,1.798,2.698c-0.026,0.024-0.051,0.05-0.076,0.075
		c-0.78-0.715-1.559-1.429-2.389-2.19C3.077,2.437,3.271,2.267,3.509,2.059z M2.266,2.753c0.049-0.055,0.195-0.069,0.275-0.039
		c0.116,0.045,0.22,0.138,0.316,0.225c0.788,0.72,1.578,1.437,2.355,2.17C5.351,5.24,5.429,5.438,5.535,5.605
		c-0.05,0.051-0.102,0.102-0.151,0.152C5.226,5.68,5.039,5.631,4.913,5.518c-0.826-0.744-1.64-1.502-2.454-2.257
		C2.384,3.192,2.298,3.119,2.263,3.03C2.229,2.947,2.218,2.806,2.266,2.753z M2.218,3.322c0.835,0.767,1.636,1.502,2.438,2.239
		C4.634,5.583,4.612,5.605,4.589,5.627C3.647,5.111,2.707,4.593,1.716,4.048C1.886,3.8,2.039,3.581,2.218,3.322z M1.183,4.268
		c0.015-0.053,0.139-0.073,0.222-0.112C1.535,4.21,1.66,4.25,1.773,4.312c0.95,0.52,1.898,1.041,2.846,1.565
		c0.1,0.056,0.212,0.117,0.278,0.206c0.05,0.069,0.075,0.21,0.037,0.273c-0.038,0.063-0.17,0.099-0.259,0.093
		C4.58,6.444,4.481,6.385,4.392,6.337C3.417,5.805,2.442,5.27,1.469,4.733C1.381,4.684,1.283,4.628,1.23,4.548
		C1.182,4.472,1.158,4.352,1.183,4.268z M1.265,4.854C2.25,5.396,3.192,5.914,4.133,6.431C4.121,6.462,4.108,6.494,4.095,6.526
		C3.061,6.25,2.025,5.973,0.94,5.684C1.053,5.394,1.151,5.144,1.265,4.854z M0.475,6.038C0.491,5.974,0.589,5.898,0.66,5.891
		c0.127-0.015,0.264,0,0.388,0.032C2.104,6.2,3.16,6.483,4.215,6.767c0.07,0.019,0.158,0.03,0.201,0.077
		C4.507,6.941,4.572,7.06,4.647,7.17c-0.11,0.056-0.22,0.112-0.317,0.161C3.97,7.236,3.646,7.152,3.324,7.065
		c-0.802-0.215-1.605-0.43-2.405-0.65C0.795,6.38,0.667,6.333,0.564,6.259C0.507,6.219,0.458,6.103,0.475,6.038z M3.942,7.442
		C3.94,7.455,3.938,7.468,3.936,7.481c-1.095,0-2.191,0-3.337,0c0.038-0.33,0.068-0.597,0.104-0.908
		C1.818,6.872,2.881,7.157,3.942,7.442z M0.202,7.903c0.154-0.085,0.307-0.242,0.461-0.241c1.156,0.004,2.313,0.033,3.47,0.08
		C4.266,7.747,4.392,7.914,4.52,8.005C4.384,8.088,4.251,8.236,4.111,8.243C3.527,8.27,2.94,8.254,2.354,8.254L0.687,8.161
		C0.521,8.15,0.363,7.993,0.202,7.903z M3.957,8.518C2.881,8.76,1.804,9.004,0.667,9.261c-0.032-0.309-0.06-0.57-0.09-0.849
		c1.157,0,2.26,0,3.364,0C3.947,8.447,3.951,8.482,3.957,8.518z M0.393,9.758c0.113-0.103,0.21-0.261,0.339-0.295
		C1.466,9.278,2.207,9.12,2.945,8.959C3.386,8.86,3.826,8.758,4.272,8.69c0.106-0.016,0.233,0.105,0.352,0.164
		C4.549,8.95,4.489,9.11,4.396,9.133C3.18,9.428,1.96,9.704,0.688,9.997C0.595,9.921,0.494,9.838,0.393,9.758z M0.872,10.153
		C1.951,9.914,2.98,9.685,4.009,9.457C4.02,9.492,4.033,9.525,4.043,9.56c-0.936,0.466-1.873,0.933-2.86,1.424
		C1.079,10.704,0.981,10.445,0.872,10.153z M1.498,11.613c-0.132,0.062-0.326-0.007-0.491-0.016
		c-0.025-0.069-0.051-0.139-0.077-0.21c0.122-0.076,0.237-0.165,0.366-0.228c1.043-0.525,2.087-1.052,3.141-1.554
		c0.126-0.061,0.318,0.013,0.48,0.026c-0.092,0.146-0.148,0.357-0.28,0.424C3.601,10.595,2.553,11.113,1.498,11.613z M1.585,11.812
		c1-0.495,1.966-0.976,2.934-1.458c0.018,0.029,0.035,0.057,0.053,0.083c-0.812,0.686-1.624,1.37-2.479,2.092
		C1.923,12.289,1.768,12.07,1.585,11.812z M2.364,13.175c-0.085,0.025-0.228,0.01-0.278-0.047c-0.045-0.053-0.026-0.193,0.01-0.276
		c0.039-0.089,0.126-0.16,0.203-0.228c0.849-0.721,1.697-1.439,2.552-2.154c0.097-0.082,0.221-0.156,0.342-0.176
		c0.079-0.014,0.176,0.075,0.318,0.145c-0.142,0.184-0.22,0.328-0.336,0.427c-0.835,0.714-1.677,1.42-2.519,2.127
		C2.567,13.065,2.47,13.144,2.364,13.175z M2.685,13.242c0.842-0.714,1.653-1.401,2.464-2.089c0.026,0.026,0.05,0.054,0.076,0.078
		c-0.625,0.859-1.251,1.719-1.892,2.6C3.106,13.626,2.914,13.452,2.685,13.242z M3.776,14.378c-0.092,0.041-0.226,0.052-0.312,0.01
		c-0.047-0.021-0.059-0.184-0.036-0.269c0.029-0.106,0.102-0.21,0.169-0.304c0.625-0.865,1.252-1.729,1.883-2.593
		c0.077-0.105,0.167-0.208,0.273-0.281c0.061-0.041,0.18-0.05,0.244-0.016c0.059,0.031,0.077,0.136,0.124,0.229
		c-0.07,0.118-0.128,0.234-0.204,0.339c-0.642,0.891-1.286,1.779-1.932,2.665C3.925,14.242,3.862,14.341,3.776,14.378z
		 M4.855,14.798c-0.27-0.149-0.486-0.27-0.769-0.424c0.655-0.906,1.292-1.783,1.929-2.665c0.028,0.014,0.052,0.026,0.08,0.04
		C5.688,12.747,5.284,13.747,4.855,14.798z M5.506,15.081c-0.113,0.099-0.239,0.182-0.359,0.269
		c-0.035-0.159-0.143-0.344-0.094-0.469c0.427-1.103,0.876-2.199,1.339-3.29c0.049-0.114,0.237-0.172,0.359-0.257
		c0.058,0.089,0.116,0.176,0.167,0.252c-0.054,0.156-0.085,0.268-0.128,0.375c-0.403,0.989-0.809,1.974-1.214,2.962
		C5.554,14.977,5.545,15.048,5.506,15.081z M5.708,15.142c0.438-1.069,0.854-2.085,1.268-3.101C7,12.048,7.023,12.055,7.047,12.062
		c-0.153,1.069-0.306,2.139-0.47,3.292C6.269,15.278,6.009,15.216,5.708,15.142z"/>
</g>
</svg>
