<?xml version="1.0" encoding="utf-8"?>
<!-- Generator: Adobe Illustrator 16.0.3, SVG Export Plug-In . SVG Version: 6.00 Build 0)  -->
<!DOCTYPE svg PUBLIC "-//W3C//DTD SVG 1.1//EN" "http://www.w3.org/Graphics/SVG/1.1/DTD/svg11.dtd">
<svg version="1.1" id="Layer_1" xmlns="http://www.w3.org/2000/svg" xmlns:xlink="http://www.w3.org/1999/xlink" x="0px" y="0px"
	 width="100px" height="100px" viewBox="0 0 100 100" enable-background="new 0 0 100 100" xml:space="preserve">
<g>
	<path fill="#00CCCC" d="M92.7,50.1c0,6.6-2.101,12.2-6.4,16.8c-4.2,4.6-9.5,6.899-15.8,6.899c-8.2,0-15.2-4.1-20.9-12.3
		c-2.8,3.6-5.8,6.5-9.3,8.6c-3.4,2.2-7,3.301-10.7,3.301c-6.6,0-12-2.101-16.2-6.4c-4.2-4.3-6.3-10-6.3-17.2
		c0-6.7,2.1-12.3,6.3-16.8c4.2-4.5,9.6-6.7,16.1-6.7c8.2,0,15,4.1,20.3,12.2c5.8-7.9,12.7-11.9,20.5-11.9c6.5,0,11.9,2.2,16,6.5
		C90.7,37.3,92.7,43,92.7,50.1z M30.4,59.2c4.1,0,8-3.101,11.6-9.4c-1.8-3.2-3.6-5.5-5.5-7.1c-1.9-1.6-4-2.3-6.3-2.3
		c-2.6,0-4.7,0.9-6.3,2.7c-1.6,1.8-2.4,4.1-2.4,6.9s0.8,5,2.4,6.7C25.6,58.3,27.7,59.2,30.4,59.2z M69.6,40.7
		c-4.1,0-8,3.1-11.699,9.3C61.6,56.4,65.6,59.6,69.8,59.6c2.601,0,4.7-0.899,6.3-2.8c1.601-1.899,2.4-4.1,2.4-6.8s-0.8-4.9-2.4-6.7
		C74.3,41.6,72.2,40.7,69.6,40.7z"/>
</g>
</svg>
